:FULLY-SPECIFIED
:FORCE-ALL-JOINTS-BE-3DOF
:DEGREES
442
root 3.40565 15.9593 -8.50589 -2.22969 -9.22417 -11.2379
lfemur -29.294 3.22368 -6.92926
ltibia 53.5578 0 0
lfoot -24.6228 2.47618 0
ltoes -4.18051 0 0
rfemur -39.9271 5.596 3.58022
rtibia 51.6889 0 0
rfoot 6.92592 4.06366 0
rtoes -15.4733 0 0
lowerback 6.96223 2.16833 2.4272
upperback 1.74621 3.02543 -0.500966
thorax -1.89142 1.5167 -2.08869
lowerneck -6.90873 1.95897 7.7437
upperneck 5.30101 2.0244 -2.16513
head 3.16942 1.09064 -2.05206
lclavicle -2.28912e-14 6.98332e-15 0
lhumerus -44.4209 -24.4483 99.1884
lradius 49.7877 0 0
lwrist 10.5202 0 0
lhand -16.653 -1.06857 0
lfingers 7.12502 0 0
lthumb 9.54666 28.3742 0
rclavicle -2.28912e-14 6.98332e-15 0
rhumerus -46.6543 9.82256 -89.6396
rradius 73.0848 0 0
rwrist 15.0239 0 0
rhand -24.2718 -19.9448 0
rfingers 7.12502 0 0
rthumb 2.19984 -769.618 0
443
root 3.42759 15.967 -8.43698 -2.56747 -7.64945 -11.5324
lfemur -29.2891 2.84647 -7.19135
ltibia 53.4509 0 0
lfoot -24.7108 2.26502 0
ltoes -3.87863 0 0
rfemur -40.2316 5.6709 3.61919
rtibia 52.0304 0 0
rfoot 6.98185 4.21482 0
rtoes -15.5107 0 0
lowerback 6.9636 2.1333 2.37032
upperback 1.72325 2.97623 -0.473965
thorax -1.91846 1.49262 -2.02504
lowerneck -6.94462 1.7829 7.60229
upperneck 5.37372 1.79795 -2.11695
head 3.19381 0.9784 -2.02637
lclavicle -2.27362e-14 6.82235e-15 0
lhumerus -44.4878 -24.5907 99.4554
lradius 49.8815 0 0
lwrist 10.3978 0 0
lhand -16.2778 -1.0627 0
lfingers 7.12502 0 0
lthumb 9.9069 28.3402 0
rclavicle -2.27362e-14 6.82235e-15 0
rhumerus -46.5702 10.319 -89.7333
rradius 73.3883 0 0
rwrist 15.2031 0 0
rhand -23.8107 -19.8225 0
rfingers 7.12502 0 0
rthumb 2.6441 -769.474 0
444
root 3.45096 15.9749 -8.36896 -2.91001 -6.03597 -11.8305
lfemur -29.2787 2.46213 -7.45851
ltibia 53.3409 0 0
lfoot -24.7922 2.05401 0
ltoes -3.56622 0 0
rfemur -40.5434 5.74185 3.66355
rtibia 52.3793 0 0
rfoot 7.03553 4.36673 0
rtoes -15.546 0 0
lowerback 6.96324 2.09677 2.3116
upperback 1.6998 2.92493 -0.446036
thorax -1.94514 1.46749 -1.95927
lowerneck -6.98129 1.6011 7.45585
upperneck 5.44696 1.56414 -2.066
head 3.21839 0.862507 -1.9993
lclavicle -2.25781e-14 6.66017e-15 0
lhumerus -44.5569 -24.7369 99.73
lradius 49.9786 0 0
lwrist 10.2745 0 0
lhand -15.8905 -1.05424 0
lfingers 7.12502 0 0
lthumb 10.2788 28.3077 0
rclavicle -2.25781e-14 6.66017e-15 0
rhumerus -46.4813 10.8269 -89.8288
rradius 73.7004 0 0
rwrist 15.3843 0 0
rhand -23.3449 -19.7013 0
rfingers 7.12502 0 0
rthumb 3.09301 -769.33 0
445
root 3.47571 15.983 -8.3018 -3.25734 -4.38558 -12.1324
lfemur -29.263 2.07103 -7.73048
ltibia 53.228 0 0
lfoot -24.8672 1.84322 0
ltoes -3.24374 0 0
rfemur -40.8621 5.80896 3.7131
rtibia 52.7351 0 0
rfoot 7.08703 4.51934 0
rtoes -15.5791 0 0
lowerback 6.96123 2.05879 2.25111
upperback 1.67589 2.87163 -0.417222
thorax -1.97147 1.44137 -1.89148
lowerneck -7.01872 1.41381 7.30463
upperneck 5.52069 1.32329 -2.01239
head 3.24314 0.743126 -1.97092
lclavicle -2.2417e-14 6.49689e-15 0
lhumerus -44.628 -24.8866 100.012
lradius 50.079 0 0
lwrist 10.1503 0 0
lhand -15.4916 -1.04331 0
lfingers 7.12502 0 0
lthumb 10.6617 28.2766 0
rclavicle -2.2417e-14 6.49689e-15 0
rhumerus -46.3879 11.3457 -89.926
rradius 74.0205 0 0
rwrist 15.5671 0 0
rhand -22.8745 -19.5812 0
rfingers 7.12502 0 0
rthumb 3.54627 -769.186 0
446
root 3.50178 15.9914 -8.2355 -3.60951 -2.70016 -12.4382
lfemur -29.2422 1.67354 -8.00698
ltibia 53.1123 0 0
lfoot -24.9359 1.63273 0
ltoes -2.91166 0 0
rfemur -41.1874 5.87233 3.76763
rtibia 53.0974 0 0
rfoot 7.13639 4.67255 0
rtoes -15.6102 0 0
lowerback 6.95761 2.01944 2.18893
upperback 1.65154 2.8164 -0.38756
thorax -1.99745 1.41429 -1.82177
lowerneck -7.05686 1.22129 7.14882
upperneck 5.59487 1.07574 -1.95623
head 3.26805 0.620419 -1.94129
lclavicle -2.22531e-14 6.33262e-15 0
lhumerus -44.701 -25.0396 100.301
lradius 50.1825 0 0
lwrist 10.0255 0 0
lhand -15.0818 -1.02998 0
lfingers 7.12502 0 0
lthumb 11.0553 28.2468 0
rclavicle -2.22531e-14 6.33262e-15 0
rhumerus -46.29 11.8748 -90.0247
rradius 74.3483 0 0
rwrist 15.7515 0 0
rhand -22.4 -19.4623 0
rfingers 7.12502 0 0
rthumb 4.00356 -769.044 0
447
root 3.52911 16 -8.17006 -3.96656 -0.981559 -12.7479
lfemur -29.2165 1.27005 -8.28775
ltibia 52.9939 0 0
lfoot -24.9986 1.4226 0
ltoes -2.57043 0 0
rfemur -41.5189 5.93207 3.82695
rtibia 53.466 0 0
rfoot 7.18369 4.82629 0
rtoes -15.6394 0 0
lowerback 6.95245 1.97877 2.12516
upperback 1.62678 2.75935 -0.357093
thorax -2.02307 1.3863 -1.75021
lowerneck -7.09567 1.02379 6.98865
upperneck 5.66944 0.821799 -1.89764
head 3.2931 0.494547 -1.91045
lclavicle -2.20863e-14 6.1675e-15 0
lhumerus -44.7758 -25.1959 100.596
lradius 50.2889 0 0
lwrist 9.89992 0 0
lhand -14.6614 -1.01434 0
lfingers 7.12502 0 0
lthumb 11.4589 28.2184 0
rclavicle -2.20863e-14 6.1675e-15 0
rhumerus -46.188 12.4138 -90.125
rradius 74.6835 0 0
rwrist 15.9373 0 0
rhand -21.9215 -19.3444 0
rfingers 7.12502 0 0
rthumb 4.4646 -768.901 0
448
root 3.55765 16.0088 -8.10548 -4.32852 0.76835 -13.0617
lfemur -29.1861 0.86093 -8.57254
ltibia 52.8729 0 0
lfoot -25.0554 1.2129 0
ltoes -2.22054 0 0
rfemur -41.8562 5.98829 3.89087
rtibia 53.8404 0 0
rfoot 7.22896 4.98047 0
rtoes -15.6666 0 0
lowerback 6.94581 1.93685 2.05988
upperback 1.60163 2.70055 -0.325859
thorax -2.04835 1.35745 -1.67691
lowerneck -7.13512 0.82157 6.82435
upperneck 5.74438 0.56181 -1.83673
head 3.31829 0.365674 -1.87846
lclavicle -2.19168e-14 6.00162e-15 0
lhumerus -44.8524 -25.3553 100.898
lradius 50.3981 0 0
lwrist 9.77381 0 0
lhand -14.2312 -0.996491 0
lfingers 7.12502 0 0
lthumb 11.872 28.1912 0
rclavicle -2.19168e-14 6.00162e-15 0
rhumerus -46.0819 12.962 -90.2266
rradius 75.0256 0 0
rwrist 16.1245 0 0
rhand -21.4395 -19.2277 0
rfingers 7.12502 0 0
rthumb 4.92906 -768.76 0
449
root 3.58734 16.0178 -8.04174 -4.69544 2.54771 -13.3796
lfemur -29.1511 0.446547 -8.86107
ltibia 52.7496 0 0
lfoot -25.1065 1.00369 0
ltoes -1.86244 0 0
rfemur -42.1991 6.04111 3.95918
rtibia 54.2202 0 0
rfoot 7.27226 5.13501 0
rtoes -15.692 0 0
lowerback 6.93775 1.89374 1.99316
upperback 1.57612 2.6401 -0.2939
thorax -2.07328 1.32778 -1.60197
lowerneck -7.17516 0.614886 6.65612
upperneck 5.81963 0.296095 -1.7736
head 3.34358 0.233961 -1.84538
lclavicle -2.17448e-14 5.8351e-15 0
lhumerus -44.9306 -25.5175 101.205
lradius 50.51 0 0
lwrist 9.64718 0 0
lhand -13.7915 -0.976513 0
lfingers 7.12502 0 0
lthumb 12.2942 28.1653 0
rclavicle -2.17448e-14 5.8351e-15 0
rhumerus -45.972 13.519 -90.3296
rradius 75.3742 0 0
rwrist 16.3128 0 0
rhand -20.9543 -19.1121 0
rfingers 7.12502 0 0
rthumb 5.39663 -768.619 0
450
root 3.61812 16.027 -7.97885 -5.06735 4.35464 -13.7018
lfemur -29.1117 0.0272772 -9.15308
ltibia 52.6241 0 0
lfoot -25.1521 0.795052 0
ltoes -1.49659 0 0
rfemur -42.5471 6.09061 4.03169
rtibia 54.6051 0 0
rfoot 7.31366 5.28984 0
rtoes -15.7156 0 0
lowerback 6.92832 1.84951 1.92508
upperback 1.55027 2.57808 -0.261255
thorax -2.09787 1.29734 -1.52547
lowerneck -7.21575 0.403991 6.48418
upperneck 5.89517 0.0249813 -1.70836
head 3.36898 0.0995722 -1.81126
lclavicle -2.15702e-14 5.66807e-15 0
lhumerus -45.0104 -25.6823 101.518
lradius 50.6243 0 0
lwrist 9.52012 0 0
lhand -13.3431 -0.954497 0
lfingers 7.12502 0 0
lthumb 12.7248 28.1406 0
rclavicle -2.15702e-14 5.66807e-15 0
rhumerus -45.8585 14.084 -90.4337
rradius 75.729 0 0
rwrist 16.5021 0 0
rhand -20.4662 -18.9976 0
rfingers 7.12502 0 0
rthumb 5.86702 -768.478 0
451
root 3.64995 16.0363 -7.91679 -5.44431 6.1873 -14.0283
lfemur -29.0681 -0.396504 -9.44831
ltibia 52.4965 0 0
lfoot -25.1925 0.587048 0
ltoes -1.12348 0 0
rfemur -42.9 6.13693 4.1082
rtibia 54.9947 0 0
rfoot 7.35319 5.44487 0
rtoes -15.7375 0 0
lowerback 6.91759 1.80421 1.85574
upperback 1.5241 2.51459 -0.227966
thorax -2.12213 1.26615 -1.44751
lowerneck -7.25686 0.189142 6.30877
upperneck 5.97093 -0.251203 -1.64113
head 3.39447 -0.0373317 -1.77616
lclavicle -2.13932e-14 5.50063e-15 0
lhumerus -45.0916 -25.8497 101.836
lradius 50.741 0 0
lwrist 9.39269 0 0
lhand -12.8863 -0.930533 0
lfingers 7.12502 0 0
lthumb 13.1635 28.1171 0
rclavicle -2.13932e-14 5.50063e-15 0
rhumerus -45.7414 14.6567 -90.5389
rradius 76.0896 0 0
rwrist 16.6924 0 0
rhand -19.9754 -18.8842 0
rfingers 7.12502 0 0
rthumb 6.33991 -768.339 0
452
root 3.68277 16.0459 -7.85556 -5.82633 8.0438 -14.3592
lfemur -29.0206 -0.824422 -9.7465
ltibia 52.3669 0 0
lfoot -25.2278 0.379746 0
ltoes -0.743549 0 0
rfemur -43.2573 6.18015 4.18852
rtibia 55.3886 0 0
rfoot 7.39093 5.60001 0
rtoes -15.7577 0 0
lowerback 6.90562 1.75792 1.78522
upperback 1.49765 2.4497 -0.194071
thorax -2.14605 1.23428 -1.36818
lowerneck -7.29845 -0.0294082 6.13008
upperneck 6.04689 -0.532132 -1.57201
head 3.42003 -0.176588 -1.74013
lclavicle -2.1214e-14 5.3329e-15 0
lhumerus -45.1742 -26.0194 102.159
lradius 50.8599 0 0
lwrist 9.26497 0 0
lhand -12.4217 -0.90471 0
lfingers 7.12502 0 0
lthumb 13.6096 28.0947 0
rclavicle -2.1214e-14 5.3329e-15 0
rhumerus -45.6211 15.2365 -90.6451
rradius 76.4557 0 0
rwrist 16.8834 0 0
rhand -19.4824 -18.7719 0
rfingers 7.12502 0 0
rthumb 6.815 -768.2 0
453
root 3.71651 16.0556 -7.79516 -6.21348 9.92229 -14.6946
lfemur -28.9692 -1.2561 -10.0474
ltibia 52.2355 0 0
lfoot -25.2582 0.173216 0
ltoes -0.357279 0 0
rfemur -43.6187 6.2204 4.27244
rtibia 55.7865 0 0
rfoot 7.42692 5.7552 0
rtoes -15.7763 0 0
lowerback 6.89245 1.71069 1.71359
upperback 1.47094 2.38352 -0.159612
thorax -2.16964 1.20176 -1.28757
lowerneck -7.34047 -0.251403 5.94835
upperneck 6.123 -0.817477 -1.50112
head 3.44565 -0.318033 -1.70323
lclavicle -2.10325e-14 5.16499e-15 0
lhumerus -45.258 -26.1913 102.487
lradius 50.9808 0 0
lwrist 9.13704 0 0
lhand -11.9499 -0.877117 0
lfingers 7.12502 0 0
lthumb 14.0626 28.0734 0
rclavicle -2.10325e-14 5.16499e-15 0
rhumerus -45.4976 15.8227 -90.7522
rradius 76.8267 0 0
rwrist 17.075 0 0
rhand -18.9874 -18.6608 0
rfingers 7.12502 0 0
rthumb 7.29197 -768.061 0
454
root 3.75112 16.0654 -7.73558 -6.60578 11.8209 -15.0346
lfemur -28.9142 -1.69117 -10.3507
ltibia 52.1025 0 0
lfoot -25.2839 -0.0324756 0
ltoes 0.0348679 0 0
rfemur -43.9838 6.25778 4.35977
rtibia 56.1879 0 0
rfoot 7.46122 5.91034 0
rtoes -15.7934 0 0
lowerback 6.87817 1.66259 1.64094
upperback 1.44399 2.31613 -0.124628
thorax -2.1929 1.16864 -1.20578
lowerneck -7.38289 -0.476588 5.76378
upperneck 6.19922 -1.10691 -1.42856
head 3.47131 -0.461507 -1.66552
lclavicle -2.08488e-14 4.99703e-15 0
lhumerus -45.343 -26.3651 102.818
lradius 51.1037 0 0
lwrist 9.00896 0 0
lhand -11.4715 -0.847843 0
lfingers 7.12502 0 0
lthumb 14.5221 28.0532 0
rclavicle -2.08488e-14 4.99703e-15 0
rhumerus -45.3712 16.4148 -90.8601
rradius 77.2024 0 0
rwrist 17.2671 0 0
rhand -18.4908 -18.5508 0
rfingers 7.12502 0 0
rthumb 7.77053 -767.924 0
455
root 3.78656 16.0753 -7.67681 -7.00328 13.7378 -15.3793
lfemur -28.8558 -2.12926 -10.6561
ltibia 51.9679 0 0
lfoot -25.3051 -0.237259 0
ltoes 0.432426 0 0
rfemur -44.3523 6.29239 4.45031
rtibia 56.5926 0 0
rfoot 7.49388 6.06536 0
rtoes -15.8089 0 0
lowerback 6.86281 1.61368 1.56735
upperback 1.41682 2.24761 -0.089161
thorax -2.21584 1.13496 -1.12291
lowerneck -7.42568 -0.704707 5.57661
upperneck 6.2755 -1.40011 -1.35445
head 3.497 -0.606845 -1.62704
lclavicle -2.06632e-14 4.82913e-15 0
lhumerus -45.4291 -26.5408 103.154
lradius 51.2283 0 0
lwrist 8.88082 0 0
lhand -10.9869 -0.816977 0
lfingers 7.12502 0 0
lthumb 14.9875 28.034 0
rclavicle -2.06632e-14 4.82913e-15 0
rhumerus -45.2421 17.0124 -90.9687
rradius 77.5824 0 0
rwrist 17.4596 0 0
rhand -17.9928 -18.442 0
rfingers 7.12502 0 0
rthumb 8.25036 -767.787 0
